<svg xmlns="http://www.w3.org/2000/svg" width="1739" height="666" viewBox="0 0 1739 666"><g transform="translate(-158.445 -108)"><g transform="translate(158.445 108)"><rect width="5" height="5" fill="#dbdbdb"/><rect width="5" height="5" transform="translate(115)" fill="#dbdbdb"/><rect width="5" height="5" transform="translate(230)" fill="#dbdbdb"/><rect width="5" height="5" transform="translate(400)" fill="#dbdbdb"/><rect width="5" height="5" transform="translate(533)" fill="#dbdbdb"/><rect width="5" height="5" transform="translate(666)" fill="#dbdbdb"/><rect width="5" height="5" transform="translate(800)" fill="#dbdbdb"/><rect width="5" height="5" transform="translate(933)" fill="#dbdbdb"/><rect width="5" height="5" transform="translate(1067)" fill="#dbdbdb"/><rect width="5" height="5" transform="translate(1200)" fill="#dbdbdb"/><rect width="5" height="5" transform="translate(1333)" fill="#dbdbdb"/><rect width="5" height="5" transform="translate(1504)" fill="#dbdbdb"/><rect width="5" height="5" transform="translate(1619)" fill="#dbdbdb"/><rect width="5" height="5" transform="translate(1734)" fill="#dbdbdb"/></g><g transform="translate(158.445 240.268)"><rect width="5" height="5" transform="translate(0 -0.268)" fill="#dbdbdb"/><rect width="5" height="5" transform="translate(115 -0.268)" fill="#dbdbdb"/><rect width="5" height="5" transform="translate(230 -0.268)" fill="#dbdbdb"/><rect width="5" height="5" transform="translate(400 -0.268)" fill="#dbdbdb"/><rect width="5" height="5" transform="translate(533 -0.268)" fill="#dbdbdb"/><rect width="5" height="5" transform="translate(666 -0.268)" fill="#dbdbdb"/><rect width="5" height="5" transform="translate(800 -0.268)" fill="#dbdbdb"/><rect width="5" height="5" transform="translate(933 -0.268)" fill="#dbdbdb"/><rect width="5" height="5" transform="translate(1067 -0.268)" fill="#dbdbdb"/><rect width="5" height="5" transform="translate(1200 -0.268)" fill="#dbdbdb"/><rect width="5" height="5" transform="translate(1333 -0.268)" fill="#dbdbdb"/><rect width="5" height="5" transform="translate(1504 -0.268)" fill="#dbdbdb"/><rect width="5" height="5" transform="translate(1619 -0.268)" fill="#dbdbdb"/><rect width="5" height="5" transform="translate(1734 -0.268)" fill="#dbdbdb"/></g><g transform="translate(158.445 372.536)"><rect width="5" height="5" transform="translate(0 0.464)" fill="#dbdbdb"/><rect width="5" height="5" transform="translate(115 0.464)" fill="#dbdbdb"/><rect width="5" height="5" transform="translate(230 0.464)" fill="#dbdbdb"/><rect width="5" height="5" transform="translate(400 0.464)" fill="#dbdbdb"/><rect width="5" height="5" transform="translate(533 0.464)" fill="#dbdbdb"/><rect width="5" height="5" transform="translate(666 0.464)" fill="#dbdbdb"/><rect width="5" height="5" transform="translate(800 0.464)" fill="#dbdbdb"/><rect width="5" height="5" transform="translate(933 0.464)" fill="#dbdbdb"/><rect width="5" height="5" transform="translate(1067 0.464)" fill="#dbdbdb"/><rect width="5" height="5" transform="translate(1200 0.464)" fill="#dbdbdb"/><rect width="5" height="5" transform="translate(1333 0.464)" fill="#dbdbdb"/><rect width="5" height="5" transform="translate(1504 0.464)" fill="#dbdbdb"/><rect width="5" height="5" transform="translate(1619 0.464)" fill="#dbdbdb"/><rect width="5" height="5" transform="translate(1734 0.464)" fill="#dbdbdb"/></g><g transform="translate(158.445 504.804)"><rect width="5" height="5" transform="translate(0 0.196)" fill="#dbdbdb"/><rect width="5" height="5" transform="translate(115 0.196)" fill="#dbdbdb"/><rect width="5" height="5" transform="translate(230 0.196)" fill="#dbdbdb"/><rect width="5" height="5" transform="translate(400 0.196)" fill="#dbdbdb"/><rect width="5" height="5" transform="translate(533 0.196)" fill="#dbdbdb"/><rect width="5" height="5" transform="translate(666 0.196)" fill="#dbdbdb"/><rect width="5" height="5" transform="translate(800 0.196)" fill="#dbdbdb"/><rect width="5" height="5" transform="translate(933 0.196)" fill="#dbdbdb"/><rect width="5" height="5" transform="translate(1067 0.196)" fill="#dbdbdb"/><rect width="5" height="5" transform="translate(1200 0.196)" fill="#dbdbdb"/><rect width="5" height="5" transform="translate(1333 0.196)" fill="#dbdbdb"/><rect width="5" height="5" transform="translate(1504 0.196)" fill="#dbdbdb"/><rect width="5" height="5" transform="translate(1619 0.196)" fill="#dbdbdb"/><rect width="5" height="5" transform="translate(1734 0.196)" fill="#dbdbdb"/></g><g transform="translate(158.445 637.072)"><rect width="5" height="5" transform="translate(0 -0.072)" fill="#dbdbdb"/><rect width="5" height="5" transform="translate(115 -0.072)" fill="#dbdbdb"/><rect width="5" height="5" transform="translate(230 -0.072)" fill="#dbdbdb"/><rect width="5" height="5" transform="translate(400 -0.072)" fill="#dbdbdb"/><rect width="5" height="5" transform="translate(533 -0.072)" fill="#dbdbdb"/><rect width="5" height="5" transform="translate(666 -0.072)" fill="#dbdbdb"/><rect width="5" height="5" transform="translate(800 -0.072)" fill="#dbdbdb"/><rect width="5" height="5" transform="translate(933 -0.072)" fill="#dbdbdb"/><rect width="5" height="5" transform="translate(1067 -0.072)" fill="#dbdbdb"/><rect width="5" height="5" transform="translate(1200 -0.072)" fill="#dbdbdb"/><rect width="5" height="5" transform="translate(1333 -0.072)" fill="#dbdbdb"/><rect width="5" height="5" transform="translate(1504 -0.072)" fill="#dbdbdb"/><rect width="5" height="5" transform="translate(1619 -0.072)" fill="#dbdbdb"/><rect width="5" height="5" transform="translate(1734 -0.072)" fill="#dbdbdb"/></g><g transform="translate(158.445 769.341)"><rect width="5" height="5" transform="translate(0 -0.341)" fill="#dbdbdb"/><rect width="5" height="5" transform="translate(115 -0.341)" fill="#dbdbdb"/><rect width="5" height="5" transform="translate(230 -0.341)" fill="#dbdbdb"/><rect width="5" height="5" transform="translate(400 -0.341)" fill="#dbdbdb"/><rect width="5" height="5" transform="translate(533 -0.341)" fill="#dbdbdb"/><rect width="5" height="5" transform="translate(666 -0.341)" fill="#dbdbdb"/><rect width="5" height="5" transform="translate(800 -0.341)" fill="#dbdbdb"/><rect width="5" height="5" transform="translate(933 -0.341)" fill="#dbdbdb"/><rect width="5" height="5" transform="translate(1067 -0.341)" fill="#dbdbdb"/><rect width="5" height="5" transform="translate(1200 -0.341)" fill="#dbdbdb"/><rect width="5" height="5" transform="translate(1333 -0.341)" fill="#dbdbdb"/><rect width="5" height="5" transform="translate(1504 -0.341)" fill="#dbdbdb"/><rect width="5" height="5" transform="translate(1619 -0.341)" fill="#dbdbdb"/><rect width="5" height="5" transform="translate(1734 -0.341)" fill="#dbdbdb"/></g></g></svg>