<svg xmlns="http://www.w3.org/2000/svg" width="44.32" height="44.32" viewBox="0 0 44.32 44.32"><g transform="translate(20.444 10.282)"><path d="M245.782,134.571l-6.179-4.635V120.5a1.717,1.717,0,1,0-3.433,0v10.3a1.713,1.713,0,0,0,.687,1.373l6.866,5.15a1.717,1.717,0,0,0,2.06-2.747Z" transform="translate(-236.169 -118.779)" fill="#e0612e"/></g><path d="M22.16,0A22.16,22.16,0,1,0,44.32,22.16,22.184,22.184,0,0,0,22.16,0Zm0,40.887A18.727,18.727,0,1,1,40.887,22.16,18.75,18.75,0,0,1,22.16,40.887Z" fill="#e0612e"/></svg>