<svg xmlns="http://www.w3.org/2000/svg" width="27.998" height="34.998" viewBox="0 0 27.998 34.998"><path d="M6.12-8.5H1.62v-3.6h4.5v-4.2H1.62v-4.1h4.5V-37.8h11a16.677,16.677,0,0,1,5.425.8,11.12,11.12,0,0,1,3.9,2.225,9.168,9.168,0,0,1,2.375,3.4,11.414,11.414,0,0,1,.8,4.325,11.414,11.414,0,0,1-.8,4.325,9.168,9.168,0,0,1-2.375,3.4,11.12,11.12,0,0,1-3.9,2.225,16.677,16.677,0,0,1-5.425.8h-6.3v4.2h11.8v3.6h-11.8v5.7H6.12ZM16.869-20.4q4.3,0,6.175-1.8a6.408,6.408,0,0,0,1.875-4.85,6.408,6.408,0,0,0-1.875-4.85q-1.875-1.8-6.175-1.8h-6.05v13.3Z" transform="translate(-1.62 37.8)" fill="#e0612e"/></svg>