<svg xmlns="http://www.w3.org/2000/svg" width="51" height="59" viewBox="0 0 51 59">
  <g id="marker" transform="translate(-1239 -7716)">
    <g id="Сгруппировать_66" data-name="Сгруппировать 66" transform="translate(-13 -29.601)">
      <circle id="Эллипс_19" data-name="Эллипс 19" cx="25.5" cy="25.5" r="25.5" transform="translate(1252 7745.601)" fill="#e0612e"/>
      <path id="Многоугольник_1" data-name="Многоугольник 1" d="M5,0l5,12H0Z" transform="translate(1282 7804.601) rotate(180)" fill="#e0612e"/>
    </g>
    <g id="Сгруппировать_67" data-name="Сгруппировать 67" transform="translate(25.89 15.087)">
      <path id="Контур_39" data-name="Контур 39" d="M96.34,227.934a2.959,2.959,0,1,1-.889,2.114A2.882,2.882,0,0,1,96.34,227.934Z" transform="translate(1145.765 7483.011)" fill="#fff"/>
      <path id="Контур_40" data-name="Контур 40" d="M75.238,262.565q-1.357,2.156-2.664,4.186t-2.326,3.784q-1.016,1.755-1.629,3.109a5.615,5.615,0,0,0-.612,2.156,2.092,2.092,0,0,0,.211.992.779.779,0,0,0,.76.4,3.56,3.56,0,0,0,1.841-.614,14.443,14.443,0,0,0,2.05-1.564,26.065,26.065,0,0,0,2.115-2.157q1.054-1.2,1.986-2.367t1.672-2.2q.738-1.036,1.2-1.67l.336.127q-1.012,1.437-2.535,3.488a39,39,0,0,1-3.426,4,20.362,20.362,0,0,1-3.593,3.021A6.78,6.78,0,0,1,66.95,278.3a3.339,3.339,0,0,1-2.621-.994,4.017,4.017,0,0,1-.888-2.772,10.207,10.207,0,0,1,1.628-4.755c1.085-1.9,2.567-4.419,4.23-7.209Z" transform="translate(1166.559 7459.938)" fill="#fff"/>
    </g>
  </g>
</svg>
