<?xml version="1.0" encoding="utf-8"?><svg viewBox="0 0 1739 666" xmlns="http://www.w3.org/2000/svg" xmlns:xlink="http://www.w3.org/1999/xlink"><style>:root>svg{display:none}:root>svg:target{display:block}</style><svg viewBox="0 0 14.615 25.059" id="arow-left" xmlns="http://www.w3.org/2000/svg"><path d="M13.599 25.06l-13.6-12.53L13.599 0l1.016 1.104-12.4 11.426 12.4 11.422z"/></svg><svg viewBox="0 0 14.615 25.059" id="arow-right" xmlns="http://www.w3.org/2000/svg"><path d="M1.016 25.06L0 23.96l12.4-11.426L0 1.104l1.016-1.1 13.6 12.53z"/></svg><svg viewBox="0 0 13.517 21.162" id="arrow" xmlns="http://www.w3.org/2000/svg"><path d="M2.032 21.162l-2.033-2.206 9.089-8.375L0 2.203l2.032-2.2 11.484 10.578z"/></svg><svg viewBox="0 0 1739 666" id="bg" xmlns="http://www.w3.org/2000/svg"><g><path d="M0 0h5v5H0zM115 0h5v5h-5zM230 0h5v5h-5zM400 0h5v5h-5zM533 0h5v5h-5zM666 0h5v5h-5zM800 0h5v5h-5zM933 0h5v5h-5zM1067 0h5v5h-5zM1200 0h5v5h-5zM1333 0h5v5h-5zM1504 0h5v5h-5zM1619 0h5v5h-5zM1734 0h5v5h-5z"/><g><path d="M0 132h5v5H0zM115 132h5v5h-5zM230 132h5v5h-5zM400 132h5v5h-5zM533 132h5v5h-5zM666 132h5v5h-5zM800 132h5v5h-5zM933 132h5v5h-5zM1067 132h5v5h-5zM1200 132h5v5h-5zM1333 132h5v5h-5zM1504 132h5v5h-5zM1619 132h5v5h-5zM1734 132h5v5h-5z"/></g><g><path d="M0 265h5v5H0zM115 265h5v5h-5zM230 265h5v5h-5zM400 265h5v5h-5zM533 265h5v5h-5zM666 265h5v5h-5zM800 265h5v5h-5zM933 265h5v5h-5zM1067 265h5v5h-5zM1200 265h5v5h-5zM1333 265h5v5h-5zM1504 265h5v5h-5zM1619 265h5v5h-5zM1734 265h5v5h-5z"/></g><g><path d="M0 397h5v5H0zM115 397h5v5h-5zM230 397h5v5h-5zM400 397h5v5h-5zM533 397h5v5h-5zM666 397h5v5h-5zM800 397h5v5h-5zM933 397h5v5h-5zM1067 397h5v5h-5zM1200 397h5v5h-5zM1333 397h5v5h-5zM1504 397h5v5h-5zM1619 397h5v5h-5zM1734 397h5v5h-5z"/></g><g><path d="M0 529h5v5H0zM115 529h5v5h-5zM230 529h5v5h-5zM400 529h5v5h-5zM533 529h5v5h-5zM666 529h5v5h-5zM800 529h5v5h-5zM933 529h5v5h-5zM1067 529h5v5h-5zM1200 529h5v5h-5zM1333 529h5v5h-5zM1504 529h5v5h-5zM1619 529h5v5h-5zM1734 529h5v5h-5z"/></g><g><path d="M0 661h5v5H0zM115 661h5v5h-5zM230 661h5v5h-5zM400 661h5v5h-5zM533 661h5v5h-5zM666 661h5v5h-5zM800 661h5v5h-5zM933 661h5v5h-5zM1067 661h5v5h-5zM1200 661h5v5h-5zM1333 661h5v5h-5zM1504 661h5v5h-5zM1619 661h5v5h-5zM1734 661h5v5h-5z"/></g></g></svg><svg viewBox="0 0 44.32 44.32" id="clock" xmlns="http://www.w3.org/2000/svg"><path d="M30.057 26.074l-6.179-4.635v-9.436a1.717 1.717 0 10-3.433 0v10.3a1.713 1.713 0 00.687 1.373l6.866 5.15a1.717 1.717 0 002.06-2.747z"/><path d="M22.16 0a22.16 22.16 0 1022.16 22.16A22.184 22.184 0 0022.16 0zm0 40.887A18.727 18.727 0 1140.887 22.16 18.75 18.75 0 0122.16 40.887z"/></svg><svg viewBox="0 0 16 16.003" id="inst" xmlns="http://www.w3.org/2000/svg"><g><path d="M15.96 4.7a5.848 5.848 0 00-.372-1.941A4.1 4.1 0 0013.246.422 5.863 5.863 0 0011.305.05C10.451.009 10.176 0 8.003 0s-2.445.009-3.3.047a5.849 5.849 0 00-1.939.372 3.9 3.9 0 00-1.419.925A3.94 3.94 0 00.422 2.76 5.863 5.863 0 00.051 4.7C.01 5.558 0 5.83 0 8s.01 2.448.051 3.3a5.847 5.847 0 00.372 1.941 4.1 4.1 0 002.338 2.343 5.863 5.863 0 001.941.372C5.551 15.994 5.828 16 8 16s2.445-.009 3.3-.047a5.846 5.846 0 001.941-.372 4.093 4.093 0 002.342-2.341 5.867 5.867 0 00.368-1.94c.037-.853.047-1.125.047-3.3s-.001-2.442-.038-3.3zm-1.441 6.534a4.386 4.386 0 01-.275 1.485 2.655 2.655 0 01-1.519 1.519 4.4 4.4 0 01-1.485.275c-.844.038-1.1.047-3.232.047s-2.392-.009-3.233-.047a4.384 4.384 0 01-1.485-.275 2.463 2.463 0 01-.919-.6 2.488 2.488 0 01-.6-.919 4.4 4.4 0 01-.275-1.485c-.038-.844-.047-1.1-.047-3.233s.009-2.392.047-3.232a4.384 4.384 0 01.275-1.485 2.432 2.432 0 01.6-.919 2.484 2.484 0 01.919-.6A4.4 4.4 0 014.777 1.5c.844-.037 1.1-.047 3.232-.047s2.392.009 3.233.047a4.386 4.386 0 011.485.275 2.461 2.461 0 01.919.6 2.487 2.487 0 01.6.919 4.4 4.4 0 01.275 1.485c.037.844.047 1.1.047 3.232s-.017 2.384-.05 3.228zm0 0"/><path d="M8.003 3.892a4.111 4.111 0 104.111 4.111 4.112 4.112 0 00-4.111-4.111zm0 6.778a2.667 2.667 0 112.667-2.667 2.667 2.667 0 01-2.667 2.667zm0 0"/><path d="M13.237 3.729a.96.96 0 11-.96-.96.96.96 0 01.96.96zm0 0"/></g></svg><svg viewBox="0 0 14.45 17" id="marker" xmlns="http://www.w3.org/2000/svg"><path d="M7.225 0A7.22 7.22 0 001.74 11.92c.128.146 3.156 3.587 4.168 4.551a1.906 1.906 0 002.635 0c1.176-1.122 4.048-4.414 4.174-4.558A7.22 7.22 0 007.225 0zm0 9.35A2.125 2.125 0 119.35 7.225 2.125 2.125 0 017.225 9.35z"/></svg><svg viewBox="0 0 27.998 34.998" id="ruble" xmlns="http://www.w3.org/2000/svg"><path d="M4.5 29.3H0v-3.6h4.5v-4.2H0v-4.1h4.5V0h11a16.677 16.677 0 015.425.8 11.12 11.12 0 013.9 2.225 9.168 9.168 0 012.375 3.4 11.414 11.414 0 01.8 4.325 11.414 11.414 0 01-.8 4.325 9.168 9.168 0 01-2.375 3.4 11.12 11.12 0 01-3.9 2.225 16.677 16.677 0 01-5.425.8H9.2v4.2H21v3.6H9.2V35H4.5zm10.749-11.9q4.3 0 6.175-1.8a6.408 6.408 0 001.875-4.85 6.408 6.408 0 00-1.875-4.85q-1.875-1.8-6.175-1.8h-6.05v13.3z"/></svg></svg>